<svg xmlns="http://www.w3.org/2000/svg" viewBox="0 0 512 512">
  <g transform="translate(51.2 51.2) scale(0.8)" fill="#498d65">
    <path d="M332.482,0H179.517c-20.036,0-36.276,16.241-36.276,36.285v439.429c0,20.045,16.24,36.286,36.276,36.286h152.964c20.036,0,36.285-16.241,36.285-36.286V36.285C368.767,16.241,352.517,0,332.482,0z M256,463.545c-28.786,0-52.116-23.339-52.116-52.116c0-28.777,23.33-52.116,52.116-52.116c28.786,0,52.116,23.339,52.116,52.116C308.116,440.206,284.785,463.545,256,463.545z M256,308.116c-28.786,0-52.116-23.339-52.116-52.116s23.33-52.116,52.116-52.116c28.786,0,52.116,23.339,52.116,52.116S284.785,308.116,256,308.116z M256,152.688c-28.786,0-52.116-23.339-52.116-52.116c0-28.777,23.33-52.116,52.116-52.116c28.786,0,52.116,23.339,52.116,52.116C308.116,129.348,284.785,152.688,256,152.688z"/>
    <path d="M44.804,73.276c0,30.349,19.553,57.242,48.428,66.581l29.286,9.473V44.188H44.804V73.276z"/>
    <path d="M44.804,233.276c0,30.349,19.553,57.242,48.428,66.581l29.286,9.473V204.188H44.804V233.276z"/>
    <path d="M44.804,393.276c0,30.349,19.553,57.242,48.428,66.581l29.286,9.473V364.188H44.804V393.276z"/>
    <path d="M389.482,44.188V149.33l29.285-9.473c28.875-9.339,48.429-36.232,48.429-66.581V44.188H389.482z"/>
    <path d="M389.482,309.33l29.285-9.473c28.875-9.339,48.429-36.232,48.429-66.581v-29.089h-77.714V309.33z"/>
    <path d="M389.482,469.33l29.285-9.473c28.875-9.339,48.429-36.232,48.429-66.581v-29.089h-77.714V469.33z"/>
  </g>
</svg>
